<svg id="delete" xmlns="http://www.w3.org/2000/svg" viewBox="0 0 20 20">
  <defs>
    <style>
      .cls-1 {
        fill: #949696;
      }
    </style>
  </defs>
  <g id="c142_x">
    <path id="Path_11" data-name="Path 11" class="cls-1" d="M10,0A10,10,0,1,0,20,10,10,10,0,0,0,10,0Zm4.3,12.708L12.705,14.3A36.72,36.72,0,0,0,10,11.6a37.243,37.243,0,0,0-2.706,2.7L5.7,12.708A31.208,31.208,0,0,0,8.4,10,30.784,30.784,0,0,0,5.7,7.3L7.292,5.7s2.541,2.7,2.706,2.7,2.708-2.7,2.708-2.7L14.3,7.3A36.619,36.619,0,0,0,11.591,10C11.591,10.183,14.3,12.708,14.3,12.708Z"/>
  </g>
</svg>
